<svg xmlns="http://www.w3.org/2000/svg" viewBox="0 0 22.63 23.14"><defs><style>.cls-1{fill:none;stroke:#000;stroke-miterlimit:10;}</style></defs><g id="Layer_2" data-name="Layer 2"><g id="Layer_2-2" data-name="Layer 2"><path class="cls-1" d="M14.38,11.5A13,13,0,0,1,9.16,21.93a2.88,2.88,0,0,1-3.44,0,13,13,0,0,1,0-20.86,2.88,2.88,0,0,1,3.44,0A13,13,0,0,1,14.38,11.5Z"/><path class="cls-1" d="M14.38,11.5A13,13,0,0,1,9.16,21.93a2.88,2.88,0,0,1-3.44,0,13,13,0,0,1,0-20.86,2.88,2.88,0,0,1,3.44,0A13,13,0,0,1,14.38,11.5Z"/><path class="cls-1" d="M18.16,19A13.06,13.06,0,0,1,7,22.48,2.87,2.87,0,0,1,4.64,20a13,13,0,0,1,15-14.51A2.86,2.86,0,0,1,22,8,13,13,0,0,1,18.16,19Z"/></g></g></svg>