<svg xmlns="http://www.w3.org/2000/svg" viewBox="0 0 358.3 88.02"><g id="Layer_2" data-name="Layer 2"><g id="Layer_1-2" data-name="Layer 1"><path d="M41.93,6a41,41,0,1,0,41,41A40.77,40.77,0,0,0,41.93,6ZM54.85,76.17A17.28,17.28,0,1,1,72.13,58.89,17.29,17.29,0,0,1,54.85,76.17Z"/><circle cx="17.28" cy="17.28" r="17.28"/><path d="M117.3,69.77l-16.24-37.1h7l14.42,33.6h-3.36l14.7-33.6h6.58l-16.24,37.1Z"/><path d="M145.16,70.19a4.71,4.71,0,0,1-4.76-4.83,4.5,4.5,0,0,1,1.4-3.43,4.72,4.72,0,0,1,3.36-1.33,4.52,4.52,0,0,1,3.25,1.33,4.59,4.59,0,0,1,1.37,3.43,4.71,4.71,0,0,1-1.37,3.47A4.43,4.43,0,0,1,145.16,70.19Z"/><path d="M161.26,69.77v-49h22q8.46,0,13,3.4a10.94,10.94,0,0,1,4.54,9.27A12,12,0,0,1,199,40.16a11.79,11.79,0,0,1-4.8,4.2,14.58,14.58,0,0,1-6.5,1.47l1.25-2.1a17.72,17.72,0,0,1,7.43,1.47,12.09,12.09,0,0,1,5.11,4.31,12.47,12.47,0,0,1,1.89,7,11.42,11.42,0,0,1-4.73,9.77q-4.72,3.47-14,3.46Zm7-5.67h16.1q5.8,0,8.88-2A6.75,6.75,0,0,0,196.32,56c0-2.84-1-4.92-3.08-6.23s-5-2-8.88-2H167.63V42.12h15q5.31,0,8.25-2a6.58,6.58,0,0,0,2.94-5.88,6.6,6.6,0,0,0-2.94-5.88c-2-1.3-4.71-2-8.25-2H168.26Z"/><path d="M213.26,69.77V17.83H220V69.77Z"/><path d="M249.31,70.19a21.52,21.52,0,0,1-10.46-2.45,17.57,17.57,0,0,1-7-6.72,19.07,19.07,0,0,1-2.49-9.8,19.59,19.59,0,0,1,2.42-9.8,17.42,17.42,0,0,1,6.65-6.68,20.14,20.14,0,0,1,19.07,0A16.89,16.89,0,0,1,264,41.39a20.71,20.71,0,0,1,2.34,10c0,.28,0,.61,0,1s-.06.73-.11,1.05H234.61V48.63h28.07L260,50.31a12.42,12.42,0,0,0-1.47-6.37,11.25,11.25,0,0,0-4.23-4.37,13.15,13.15,0,0,0-12.5,0A11.12,11.12,0,0,0,237.48,44a13.42,13.42,0,0,0-1.54,6.47v1.12a12.71,12.71,0,0,0,1.72,6.62,11.78,11.78,0,0,0,4.79,4.51,15,15,0,0,0,7.07,1.61,15.4,15.4,0,0,0,6-1.12,13,13,0,0,0,4.72-3.36l3.71,4.34a16.21,16.21,0,0,1-6.26,4.48A21.78,21.78,0,0,1,249.31,70.19Z"/><path d="M295.44,32.32a17.64,17.64,0,0,1,8,1.75,12.53,12.53,0,0,1,5.42,5.32,18.58,18.58,0,0,1,2,9V69.77h-6.72V49.19q0-5.38-2.62-8.12t-7.39-2.73a13.25,13.25,0,0,0-6.23,1.4,9.6,9.6,0,0,0-4.09,4.13,14.46,14.46,0,0,0-1.44,6.79V69.77h-6.72V32.67h6.44v10L281,40a13,13,0,0,1,5.6-5.67A18.4,18.4,0,0,1,295.44,32.32Z"/><path d="M338.63,70.19A19.25,19.25,0,0,1,329,67.81a17.38,17.38,0,0,1-6.69-6.65,19.64,19.64,0,0,1-2.45-9.94,19.44,19.44,0,0,1,2.45-9.9A17.5,17.5,0,0,1,329,34.7a19.36,19.36,0,0,1,9.62-2.38,17.13,17.13,0,0,1,8.47,2.1,15.37,15.37,0,0,1,6.06,6.3,21.93,21.93,0,0,1,2.27,10.5,22.43,22.43,0,0,1-2.2,10.5,15.19,15.19,0,0,1-6,6.34A17.23,17.23,0,0,1,338.63,70.19Zm.56-5.88a12.53,12.53,0,0,0,6.34-1.61A11.62,11.62,0,0,0,350,58.12a14.11,14.11,0,0,0,1.64-6.9A13.8,13.8,0,0,0,350,44.33a11.79,11.79,0,0,0-4.48-4.52,13.35,13.35,0,0,0-12.71,0,12.15,12.15,0,0,0-4.48,4.52,13.5,13.5,0,0,0-1.68,6.89,13.8,13.8,0,0,0,1.68,6.9,12,12,0,0,0,4.48,4.58A12.49,12.49,0,0,0,339.19,64.31Zm12.67,5.46v-10l.42-8.61-.7-8.61V17.83h6.72V69.77Z"/></g></g></svg>