<svg xmlns="http://www.w3.org/2000/svg" viewBox="0 0 23.43 23.43"><defs><style>.cls-1{fill:none;stroke:#000;stroke-miterlimit:10;}</style></defs><g id="Layer_2" data-name="Layer 2"><g id="Layer_2-2" data-name="Layer 2"><path class="cls-1" d="M18.74,7.72h0a2.88,2.88,0,0,1-2.86-2.9h0A4.2,4.2,0,0,0,12,.51a4.07,4.07,0,0,0-4.31,4v.23A2.87,2.87,0,0,1,4.82,7.6h0A4.2,4.2,0,0,0,.51,11.4a4.05,4.05,0,0,0,4,4.31h.23a2.88,2.88,0,0,1,2.85,2.9v.13a4.12,4.12,0,0,0,3.17,4.1,4.06,4.06,0,0,0,4.94-3.93v-.22a2.89,2.89,0,0,1,2.9-2.86h.23a4.06,4.06,0,0,0,4.08-4.42A4.18,4.18,0,0,0,18.74,7.72Z"/></g></g></svg>